<?xml version="1.0" encoding="UTF-8"?>
<svg xmlns="http://www.w3.org/2000/svg" width="185" height="47" xmlns:xlink="http://www.w3.org/1999/xlink" xmlns:i="http://ns.adobe.com/AdobeIllustrator/10.0/" version="1.1" viewBox="0 0 185 47">
  <defs>
    <linearGradient id="linear-gradient" x1="1.9" y1="35.2" x2="36.8" y2=".3" gradientTransform="translate(0 37) scale(1 -1)" gradientUnits="userSpaceOnUse">
      <stop offset="0" stop-color="#faaf43"/>
      <stop offset="1" stop-color="#f15b2a"/>
    </linearGradient>
    <linearGradient id="linear-gradient-2" x1="23.3" y1="18.8" x2="22.6" y2="22.6" gradientTransform="translate(0 -9)" gradientUnits="userSpaceOnUse">
      <stop offset=".5" stop-color="#d8732d" stop-opacity="0"/>
      <stop offset="1" stop-color="#ae4b1a"/>
    </linearGradient>
  </defs>
  <!-- Generator: Adobe Illustrator 28.7.1, SVG Export Plug-In . SVG Version: 1.2.0 Build 142)  -->
  <g>
    <g id="Layer_1">
      <g>
        <path d="M63.9,27.9c0,2.5-.9,4.6-2.7,6.3-1.8,1.7-3.9,2.6-6.4,2.6s-4.7-.9-6.4-2.6c-1.8-1.7-2.7-3.9-2.7-6.3s.9-4.6,2.7-6.3c1.8-1.7,3.9-2.6,6.4-2.6s4.7.9,6.4,2.6c1.8,1.7,2.7,3.9,2.7,6.3M54.8,20.7c-2,0-3.7.7-5.1,2.1-1.4,1.4-2.1,3.1-2.1,5.1s.7,3.7,2.1,5.1c1.4,1.4,3.1,2.1,5.1,2.1s3.7-.7,5.1-2.1c1.4-1.4,2.1-3.1,2.1-5.1s-.7-3.7-2.1-5.1c-1.4-1.4-3.1-2.1-5.1-2.1M53.2,16.2c0,.3-.1.6-.3.8-.2.2-.5.3-.8.3s-.6-.1-.8-.3c-.2-.2-.3-.5-.3-.8s.1-.6.3-.8c.2-.2.5-.3.8-.3s.6.1.8.3c.2.2.3.5.3.8M58.7,16.2c0,.3-.1.6-.3.8-.2.2-.5.3-.8.3s-.6-.1-.8-.3c-.2-.2-.3-.5-.3-.8s.1-.6.3-.8c.2-.2.5-.3.8-.3s.6.1.8.3c.2.2.3.5.3.8" fill="#231f20"/>
        <path d="M75.1,35c.3,0,.5,0,.6.3s.3.4.3.6,0,.5-.3.6c-.2.2-.4.3-.6.3h-9.1c-.3,0-.5,0-.6-.3-.2-.2-.3-.4-.3-.6s0-.4.2-.5l7.9-9.3h-7.2c-.3,0-.5,0-.6-.3-.2-.2-.3-.4-.3-.6s0-.5.3-.6c.2-.2.4-.3.6-.3h9.1c.3,0,.5,0,.6.3.2.2.3.4.3.6s0,.4-.2.6l-7.9,9.2h7.2Z" fill="#231f20"/>
        <path d="M88.2,19.8c0-.2,0-.5.3-.6s.4-.3.6-.3.5,0,.6.3c.2.2.3.4.3.6v10.7c0,1.7-.6,3.2-1.9,4.4-1.2,1.2-2.7,1.8-4.5,1.8s-3.3-.6-4.5-1.8c-1.2-1.2-1.9-2.7-1.9-4.4s.6-3.2,1.9-4.4c1.2-1.2,2.7-1.8,4.5-1.8s3.3.6,4.5,1.8h0s0-6.3,0-6.3ZM88.2,30.5c0-1.2-.4-2.3-1.3-3.2-.9-.9-2-1.3-3.2-1.3s-2.3.4-3.2,1.3c-.9.9-1.3,1.9-1.3,3.2s.4,2.3,1.3,3.2c.9.9,2,1.3,3.2,1.3s2.3-.4,3.2-1.3c.9-.9,1.3-1.9,1.3-3.2" fill="#231f20"/>
        <path d="M94.2,21.6c0,.3-.1.6-.3.8-.2.2-.5.3-.8.3s-.6-.1-.8-.3c-.2-.2-.3-.5-.3-.8s.1-.6.3-.8c.2-.2.5-.3.8-.3s.6.1.8.3c.2.2.3.5.3.8M92.2,25.2c0-.2,0-.5.3-.6.2-.2.4-.3.6-.3s.5,0,.6.3c.2.2.3.4.3.6v10.7c0,.2,0,.5-.3.6-.2.2-.4.3-.6.3s-.5,0-.6-.3c-.2-.2-.3-.4-.3-.6v-10.7Z" fill="#231f20"/>
        <path d="M96.1,19.8c0-.2,0-.5.3-.6.2-.2.4-.3.6-.3s.5,0,.6.3c.2.2.3.4.3.6v15.2h.9c.2,0,.5,0,.6.3.2.2.3.4.3.6s0,.5-.3.6c-.2.2-.4.3-.6.3h-1.8c-.3,0-.5,0-.6-.3-.2-.2-.3-.4-.3-.6v-16.1Z" fill="#231f20"/>
        <path d="M110.9,33.7c.3,0,.5,0,.6.3.2.2.3.4.3.6s0,.5-.3.6c-1.2,1-2.6,1.5-4.2,1.5s-3.3-.6-4.5-1.8c-1.2-1.2-1.9-2.7-1.9-4.4s.6-3.2,1.9-4.4c1.2-1.2,2.7-1.8,4.5-1.8s3.3.6,4.5,1.8c1.2,1.2,1.9,2.7,1.9,4.4s0,.5-.3.6c-.2.2-.4.3-.6.3h-9.9c.2.9.6,1.6,1.3,2.3.9.9,2,1.3,3.2,1.3s2.1-.4,2.9-1.1c.2-.1.4-.2.6-.2M111.9,29.6c-.2-.9-.6-1.6-1.3-2.3-.9-.9-2-1.3-3.2-1.3s-2.3.4-3.2,1.3c-.7.7-1.1,1.4-1.3,2.3h8.9Z" fill="#231f20"/>
        <path d="M116.8,29.3l7.7-4.9c.1,0,.3-.1.5-.1s.5,0,.6.3c.2.2.3.4.3.6s0,.5-.3.6h-.1c0,.1-5.3,3.5-5.3,3.5l5.4,6c.2.2.2.4.2.6s0,.5-.3.6c-.2.2-.4.3-.6.3s-.5,0-.7-.3l-5.7-6.3-1.9,1.2v4.4c0,.2,0,.5-.3.6-.2.2-.4.3-.6.3s-.5,0-.6-.3c-.2-.2-.3-.4-.3-.6v-16.1c0-.2,0-.5.3-.6.2-.2.4-.3.6-.3s.5,0,.6.3.3.4.3.6v9.5Z" fill="#231f20"/>
        <path d="M133.5,35c.3,0,.5,0,.6.3s.3.4.3.6,0,.5-.3.6c-.2.2-.4.3-.6.3-3,0-4.5-1.5-4.5-4.5v-6.3h-.9c-.3,0-.5,0-.6-.3-.2-.2-.3-.4-.3-.6s0-.5.3-.6c.2-.2.4-.3.6-.3h.9v-4.5c0-.2,0-.5.3-.6.2-.2.4-.3.6-.3s.5,0,.6.3.3.4.3.6v4.5h1.8c.2,0,.5,0,.6.3.2.2.3.4.3.6s0,.5-.3.6c-.2.2-.4.3-.6.3h-1.8v6.3c0,1.8.9,2.7,2.7,2.7" fill="#231f20"/>
        <path d="M145.6,33.7c.2,0,.5,0,.6.3.2.2.3.4.3.6s0,.5-.3.6c-1.2,1-2.6,1.5-4.2,1.5s-3.3-.6-4.5-1.8c-1.2-1.2-1.9-2.7-1.9-4.4s.6-3.2,1.9-4.4c1.2-1.2,2.7-1.8,4.5-1.8s3.3.6,4.5,1.8c1.2,1.2,1.9,2.7,1.9,4.4s0,.5-.3.6c-.2.2-.4.3-.6.3h-9.9c.2.9.6,1.6,1.3,2.3.9.9,2,1.3,3.2,1.3s2.1-.4,2.9-1.1c.2-.1.4-.2.6-.2M146.5,29.6c-.2-.9-.6-1.6-1.3-2.3-.9-.9-2-1.3-3.2-1.3s-2.3.4-3.2,1.3c-.7.7-1.1,1.4-1.3,2.3h8.9Z" fill="#231f20"/>
        <path d="M154.1,35.9l-4.4-10.3c0-.1-.1-.3-.1-.4,0-.2,0-.5.3-.6.2-.2.4-.3.6-.3s.5,0,.6.3c0,.1.2.2.2.3l3.7,8.7,3.7-8.7c0-.1.1-.2.2-.3.2-.2.4-.3.6-.3s.5,0,.6.3.3.4.3.6,0,.3-.1.4l-6.8,16c0,.1-.1.2-.2.3-.2.2-.4.3-.6.3s-.5,0-.6-.3c-.2-.2-.3-.4-.3-.6s0-.3.1-.4l2.1-5Z" fill="#231f20"/>
        <path d="M164.8,21.6c0,.3-.1.6-.3.8-.2.2-.5.3-.8.3s-.6-.1-.8-.3c-.2-.2-.3-.5-.3-.8s.1-.6.3-.8c.2-.2.5-.3.8-.3s.6.1.8.3c.2.2.3.5.3.8M162.7,25.2c0-.2,0-.5.3-.6.2-.2.4-.3.6-.3s.5,0,.6.3c.2.2.3.4.3.6v10.7c0,.2,0,.5-.3.6-.2.2-.4.3-.6.3s-.5,0-.6-.3c-.2-.2-.3-.4-.3-.6v-10.7Z" fill="#231f20"/>
        <path d="M168.5,35.9c0,.2,0,.5-.3.6-.2.2-.4.3-.6.3s-.5,0-.6-.3c-.2-.2-.3-.4-.3-.6v-10.7c0-.2,0-.5.3-.6.2-.2.4-.3.6-.3s.5,0,.6.3c.2.2.3.4.3.6v.2c.9-.8,2-1.1,3.2-1.1s2.6.5,3.5,1.4c.2.2.4.4.6.6.2-.2.4-.4.6-.6,1-1,2.2-1.4,3.5-1.4s2.6.5,3.5,1.4,1.5,2.1,1.5,3.5v6.7c0,.2,0,.5-.3.6-.2.2-.4.3-.6.3s-.5,0-.6-.3c-.2-.2-.3-.4-.3-.6v-6.7c0-.9-.3-1.6-.9-2.2-.6-.6-1.4-.9-2.3-.9s-1.6.3-2.3.9c-.6.6-.9,1.3-.9,2.2v6.7c0,.2,0,.5-.3.6-.2.2-.4.3-.6.3s-.5,0-.6-.3c-.2-.2-.3-.4-.3-.6v-6.7c0-.9-.3-1.6-.9-2.2-.6-.6-1.4-.9-2.3-.9s-1.6.3-2.3.9c-.6.6-.9,1.3-.9,2.2v6.7Z" fill="#231f20"/>
      </g>
      <path id="_Compound_Path_" d="M38.1,7.5c.5-1.8,0-3.6-1-5-1.2-1.4-3-2.2-4.9-2.2h-.1c-3.6,0-7.8,3.6-12.8,11.3C14.1,3.9,10,.2,6.4.2h-.1c-1.9,0-3.7.8-4.9,2.2C.3,3.9-.1,5.7.3,7.5c1.8,8.3,16.9,8.5,18.8,8.5h.4c7.6,0,13.7,6.1,13.7,13.7,0,7.6-6.1,13.7-13.7,13.7h0c-7.6,0-13.9-6.2-14-13.8,0-3.8,1.6-7.4,4.4-10,.7-.6.8-1.7.2-2.4,0,0,0,0,0,0-.7-.7-1.7-.7-2.5-.1-3.5,3.2-5.5,7.7-5.6,12.4.1,9.5,7.9,17.2,17.5,17.1,9.5,0,17.3-7.5,17.5-17.1,0-6.1-3.3-11.7-8.5-14.7,4.3-.9,8.8-3,9.7-7.2ZM3.8,6.7c-.3-.7-.2-1.5.3-2.2.6-.6,1.4-.9,2.2-.9h0c1,0,3.9.9,9.3,8.7-4.5-.5-11-1.9-11.8-5.6ZM34.7,6.7c-.8,3.6-7.2,5-11.9,5.6,5.4-7.8,8.3-8.7,9.3-8.7h0c.8,0,1.6.3,2.2.9.4.7.6,1.4.4,2.2Z" fill="url(#linear-gradient)"/>
      <path id="_Path_" d="M28.4,14.8c-2.2-1.1-4.6-1.8-7.1-2.1-3.2-.3-3.6-.1-5.7-.4-.7-1.1-1.6-2.2-1.6-2.2l4.1-.2.6.8.6.8,1.3-1.9,3.3,1.3-1,1.4c1.6-.1,4.1-.6,4.9-.8.2.2,3.7,2.2,4.1,2.3-.9.3-2.2.7-3.4,1h0Z" fill="url(#linear-gradient-2)" isolation="isolate"/>
    </g>
  </g>
</svg>